<?xml version="1.0" standalone="no"?>
<!DOCTYPE svg PUBLIC "-//W3C//DTD SVG 20010904//EN"
 "http://www.w3.org/TR/2001/REC-SVG-20010904/DTD/svg10.dtd">
<svg version="1.0" xmlns="http://www.w3.org/2000/svg"
 width="480.000000pt" height="222.000000pt" viewBox="0 0 480.000000 222.000000"
 preserveAspectRatio="xMidYMid meet">

<g transform="translate(0.000000,222.000000) scale(0.100000,-0.100000)"
fill="#000000" stroke="none">
<path d="M1197 2213 c662 -2 1744 -2 2405 0 662 1 121 2 -1202 2 -1323 0
-1864 -1 -1203 -2z"/>
<path d="M2655 1760 c-28 -11 -72 -60 -86 -95 -6 -16 -17 -73 -23 -125 l-11
-95 -75 -8 c-88 -9 -150 -4 -161 15 -5 7 -9 35 -9 61 0 79 -28 182 -57 211
-47 47 -135 47 -185 -1 -53 -51 -74 -162 -94 -484 l-6 -96 -71 -7 c-158 -14
-304 -62 -328 -107 -16 -30 -2 -57 37 -69 l36 -12 -25 -27 c-37 -39 -50 -70
-43 -104 17 -85 87 -91 229 -18 145 74 185 85 260 73 34 -6 139 -14 232 -18
l170 -6 -3 -38 c-3 -29 1 -43 18 -60 20 -20 30 -22 94 -18 93 6 157 35 221
102 l51 53 80 6 c180 15 404 80 461 133 41 38 41 52 4 88 -41 39 -116 55 -307
62 l-162 7 -6 40 c-4 21 -11 114 -16 206 -10 186 -26 256 -70 299 -38 38 -106
53 -155 32z m-456 -46 c34 -24 50 -72 57 -171 9 -146 -3 -133 127 -133 61 0
128 3 148 6 l36 6 5 97 c8 151 47 211 141 211 62 0 82 -11 108 -63 18 -34 23
-69 30 -192 4 -82 13 -202 18 -265 6 -63 11 -159 11 -212 0 -93 -1 -98 -21
-98 -12 0 -37 14 -56 30 -18 17 -40 30 -48 30 -11 0 -14 17 -13 78 1 90 -21
146 -74 183 -51 36 -93 31 -139 -18 -52 -56 -73 -130 -67 -239 l4 -84 -30 -5
c-17 -4 -71 -5 -121 -3 -74 2 -89 6 -87 18 14 59 13 171 -2 223 -19 66 -44 87
-104 87 -86 0 -128 -79 -120 -227 4 -83 0 -94 -30 -74 -11 7 -12 50 -3 242 6
129 14 261 17 294 15 145 52 261 91 284 28 16 96 13 122 -5z m459 -504 c19
-12 41 -38 52 -63 33 -71 22 -193 -17 -185 -14 2 -16 14 -14 64 4 107 -36 169
-98 149 -48 -15 -90 -144 -72 -224 7 -31 6 -43 -5 -52 -20 -16 -24 -9 -31 53
-10 100 31 227 84 260 37 23 61 22 101 -2z m-486 -34 c32 -24 51 -87 51 -171
0 -45 -5 -91 -12 -103 -14 -27 -47 -31 -36 -4 32 76 26 192 -11 233 -26 29
-80 25 -101 -8 -19 -29 -24 -129 -10 -195 7 -34 6 -38 -11 -38 -15 0 -21 10
-26 46 -10 77 -7 131 11 175 26 65 101 99 145 65z m-297 -225 c82 -37 79 -42
-68 -115 -74 -36 -147 -66 -162 -66 -61 0 -83 56 -45 117 44 73 185 105 275
64z m913 -27 c12 -8 22 -16 22 -19 0 -2 -19 -24 -42 -49 -50 -56 -124 -93
-200 -102 -176 -20 -119 136 66 182 57 14 120 9 154 -12z"/>
<path d="M864 1677 c-62 -164 -130 -333 -210 -519 -57 -130 -84 -206 -82 -225
l3 -28 223 -3 222 -2 0 -130 0 -130 65 0 65 0 0 130 0 130 85 0 85 0 0 50 0
50 -85 0 -85 0 0 181 0 182 -56 -7 c-31 -4 -61 -9 -65 -12 -5 -3 -9 -81 -9
-173 l0 -168 -167 -5 c-93 -3 -170 -4 -173 -1 -2 2 17 43 44 91 94 172 298
593 293 606 -3 8 -33 23 -66 34 l-60 20 -27 -71z"/>
<path d="M3760 1727 c-5 -12 -52 -130 -104 -262 -52 -132 -121 -299 -154 -371
-44 -98 -58 -139 -54 -163 l4 -31 219 0 219 0 0 -130 0 -130 70 0 70 0 0 130
0 130 85 0 85 0 0 50 0 50 -85 0 -85 0 0 181 0 182 -54 -7 c-92 -10 -86 3 -86
-186 l0 -167 -162 -5 c-90 -3 -166 -3 -170 1 -4 3 11 38 34 76 45 78 217 418
271 536 19 42 32 81 28 86 -3 6 -32 20 -64 31 l-57 22 -10 -23z"/>
<path d="M1387 1526 c-63 -23 -77 -42 -77 -103 0 -30 5 -63 11 -75 17 -32 73
-48 198 -57 104 -7 128 -13 202 -45 46 -21 91 -40 99 -44 8 -3 -3 15 -26 40
-22 26 -59 82 -83 126 -48 89 -99 144 -150 161 -45 15 -127 13 -174 -3z m129
-68 c-1 -29 2 -33 26 -36 27 -3 45 -32 33 -52 -10 -17 -25 -11 -25 10 0 29
-28 25 -36 -5 -3 -14 -10 -22 -15 -19 -10 6 -12 117 -2 127 14 15 21 6 19 -25z
m-42 -43 c10 -38 -10 -67 -42 -63 -21 2 -28 9 -30 31 -5 43 4 57 37 57 23 0
30 -5 35 -25z"/>
<path d="M1422 1398 c2 -13 10 -23 18 -23 8 0 16 10 18 23 3 17 -2 22 -18 22
-16 0 -21 -5 -18 -22z"/>
</g>
</svg>
